<?xml version="1.0" encoding="UTF-8"?>
<svg width="24px" height="24px" viewBox="0 0 24 24" version="1.1" xmlns="http://www.w3.org/2000/svg">
    <path fill="#2563eb" d="M12,2 C16.418,2 20,3.791 20,6 L20,18 C20,20.209 16.418,22 12,22 C7.582,22 4,20.209 4,18 L4,6 C4,3.791 7.582,2 12,2 Z M12,4 C8.686,4 6,5.343 6,7 C6,8.657 8.686,10 12,10 C15.314,10 18,8.657 18,7 C18,5.343 15.314,4 12,4 Z M12,12 C8.686,12 6,10.657 6,9 L6,14 C6,15.657 8.686,17 12,17 C15.314,17 18,15.657 18,14 L18,9 C18,10.657 15.314,12 12,12 Z"></path>
</svg>
