<?xml version="1.0" encoding="UTF-8"?>
<svg width="24px" height="24px" viewBox="0 0 24 24" version="1.1" xmlns="http://www.w3.org/2000/svg">
    <path fill="#60a5fa" d="M12,2 C15.86,2 19,5.14 19,9 C19,14.25 12,22 12,22 C12,22 5,14.25 5,9 C5,5.14 8.14,2 12,2 Z M12,4 C9.24,4 7,6.24 7,9 C7,10.26 7.38,11.65 8.07,13.07 C9.07,15.06 10.61,17.14 12,18.82 C13.39,17.14 14.93,15.06 15.93,13.07 C16.62,11.65 17,10.26 17,9 C17,6.24 14.76,4 12,4 Z M12,6 C13.66,6 15,7.34 15,9 C15,10.66 13.66,12 12,12 C10.34,12 9,10.66 9,9 C9,7.34 10.34,6 12,6 Z"></path>
</svg>
