<?xml version="1.0" encoding="UTF-8"?>
<svg width="24px" height="24px" viewBox="0 0 24 24" version="1.1" xmlns="http://www.w3.org/2000/svg">
    <path fill="#60a5fa" d="M20,15.5 C18.8,15.5 17.5,15.3 16.4,14.9 C16.3,14.9 16.2,14.9 16.1,14.9 C15.8,14.9 15.6,15 15.4,15.2 L13.2,17.4 C10.4,15.9 8,13.6 6.6,10.8 L8.8,8.6 C9.1,8.3 9.2,7.9 9,7.6 C8.7,6.5 8.5,5.2 8.5,4 C8.5,3.5 8,3 7.5,3 L4,3 C3.5,3 3,3.5 3,4 C3,13.4 10.6,21 20,21 C20.5,21 21,20.5 21,20 L21,16.5 C21,16 20.5,15.5 20,15.5 Z M19,18.9 C11.5,18.4 5.6,12.5 5.1,5 L7.5,5 C7.6,6.1 7.8,7.1 8,8.1 L6.7,9.4 C6.4,9.7 6.3,10.1 6.4,10.4 C8.1,14.2 11.8,17.9 15.6,19.6 C15.9,19.7 16.3,19.6 16.6,19.3 L17.9,18 C18.9,18.2 19.9,18.4 21,18.4 L21,18.9 L19,18.9 Z"></path>
</svg>
