<?xml version="1.0" encoding="UTF-8" standalone="no"?>
<svg
   xmlns:dc="http://purl.org/dc/elements/1.1/"
   xmlns:cc="http://creativecommons.org/ns#"
   xmlns:rdf="http://www.w3.org/1999/02/22-rdf-syntax-ns#"
   xmlns:svg="http://www.w3.org/2000/svg"
   xmlns="http://www.w3.org/2000/svg"
   version="1.1"
   viewBox="0 0 452.86667 452.86667"
   height="452.86667"
   width="452.86667">
  <g transform="matrix(4.5714286,0,0,4.5714286,1.371429,-12.8)">
    <path
       style="fill:#366994"
       d="m 49.33,23.71 c -2.02,-8.18 -5.88,-14.36 -14.06,-14.36 H 24.71 v 12.54 c 0,9.73 -8.24,17.9 -17.63,17.9 H -16.35 c -7.72,0 -14.06,6.61 -14.06,14.33 v 26.87 c 0,7.64 6.64,12.12 14.06,14.31 8.87,2.62 17.41,3.09 23.43,0 4,-2.06 14.06,-7.57 14.06,-14.31 V 69.07 H -2.29 v -3.45 h 37.79 c 8.18,0 11.23,-5.71 14.06,-14.31 2.93,-8.87 2.81,-17.41 0,-26.87 z m -26.87,13.81 c 2.67,0 4.84,2.17 4.84,4.84 0,2.67 -2.17,4.84 -4.84,4.84 -2.67,0 -4.84,-2.17 -4.84,-4.84 0,-2.67 2.17,-4.84 4.84,-4.84 z" />
    <path
       style="fill:#ffd43b"
       d="m -16.35,25.79 c 0,-9.73 8.24,-17.9 17.63,-17.9 h 23.43 c 7.72,0 14.06,-6.61 14.06,-14.33 v -26.87 c 0,-7.64 -6.64,-12.12 -14.06,-14.31 -8.87,-2.62 -17.41,-3.09 -23.43,0 -4,2.06 -14.06,7.57 -14.06,14.31 v 11.92 h 23.43 v 3.45 h -37.49 c -8.18,0 -11.23,5.71 -14.06,14.31 -2.93,8.87 -2.81,17.41 0,26.87 2.02,8.18 5.88,14.36 14.06,14.36 h 9.09 z m 4.84,-41.33 c -2.67,0 -4.84,-2.17 -4.84,-4.84 0,-2.67 2.17,-4.84 4.84,-4.84 2.67,0 4.84,2.17 4.84,4.84 0,2.67 -2.17,4.84 -4.84,4.84 z" />
  </g>
</svg>
